<?xml version="1.0" encoding="utf-8"?>
<!-- Generator: Adobe Illustrator 16.0.0, SVG Export Plug-In . SVG Version: 6.00 Build 0)  -->
<!DOCTYPE svg PUBLIC "-//W3C//DTD SVG 1.1//EN" "http://www.w3.org/Graphics/SVG/1.1/DTD/svg11.dtd">
<svg version="1.1" id="Lager_1" xmlns="http://www.w3.org/2000/svg" xmlns:xlink="http://www.w3.org/1999/xlink" x="0px" y="0px"
	 width="75px" height="58.594px" viewBox="0 145.703 75 58.594" enable-background="new 0 145.703 75 58.594" xml:space="preserve">
<g>
	<path fill="#FFFFFF" d="M33.457,167.148L33.457,167.148c-0.41,1.348-0.762,2.93-1.172,4.277l-1.758,5.625h5.918l-1.816-5.625
		C34.16,170.02,33.809,168.496,33.457,167.148z"/>
	<path fill="#FFFFFF" d="M37.5,145.703c-16.172,0-29.297,13.125-29.297,29.297s13.125,29.297,29.297,29.297
		S66.797,191.172,66.797,175S53.672,145.703,37.5,145.703z M39.199,186.719l-2.051-6.504h-7.266l-1.992,6.504h-4.336l7.324-22.91
		h5.332l7.5,22.91H39.199z M49.57,186.719h-4.219v-16.523h4.219V186.719z M47.402,167.793c-1.406,0-2.285-0.996-2.285-2.227
		c0-1.289,0.938-2.285,2.344-2.285s2.285,0.996,2.344,2.285C49.805,166.797,48.867,167.793,47.402,167.793z"/>
</g>
</svg>
