<?xml version="1.0" encoding="utf-8"?>
<!-- Generator: Adobe Illustrator 16.0.0, SVG Export Plug-In . SVG Version: 6.00 Build 0)  -->
<!DOCTYPE svg PUBLIC "-//W3C//DTD SVG 1.1//EN" "http://www.w3.org/Graphics/SVG/1.1/DTD/svg11.dtd">
<svg version="1.1" id="Lager_1" xmlns="http://www.w3.org/2000/svg" xmlns:xlink="http://www.w3.org/1999/xlink" x="0px" y="0px"
	 width="75px" height="58.594px" viewBox="-5 33.703 75 58.594" enable-background="new -5 33.703 75 58.594" xml:space="preserve">
<g>
	<path fill="#FFFFFF" d="M32.5,33.703C16.328,33.703,3.203,46.828,3.203,63S16.328,92.297,32.5,92.297S61.797,79.172,61.797,63
		S48.672,33.703,32.5,33.703z M26.992,71.555c-1.992,2.051-5.098,3.164-9.023,3.164c-1.816,0-3.457-0.117-4.863-0.293l-0.234-0.059
		V51.809l0.234-0.06c1.582-0.293,3.633-0.47,5.742-0.47c3.633,0,6.211,0.88,8.145,2.638c2.051,1.992,3.105,4.806,3.105,8.496
		C30.098,66.281,29.043,69.445,26.992,71.555z M47.559,74.484h-3.75l-1.758-6.797c-0.352-1.23-0.586-2.402-0.82-3.691
		c-0.233,1.406-0.526,2.637-0.819,3.691l-1.815,6.797h-3.75l-4.278-16.875h4.219l1.523,7.617c0.176,1.229,0.41,2.52,0.645,3.809
		c0.176-1.055,0.469-2.109,0.703-3.105l2.051-8.262h3.34l1.875,7.441c0.293,1.465,0.586,2.754,0.82,3.926
		c0.176-1.172,0.41-2.402,0.703-3.926l1.582-7.441h4.102L47.559,74.484z"/>
	<path fill="#FFFFFF" d="M19.141,55.031c-1.113,0-1.816,0.117-2.168,0.176v15.586c0.469,0.059,1.113,0.059,1.699,0.059h0.059
		c2.227,0,3.984-0.645,5.156-2.051c1.23-1.406,1.875-3.516,1.875-6.27c0-2.578-0.645-4.512-1.934-5.801
		C22.715,55.617,21.133,55.031,19.141,55.031z"/>
</g>
</svg>
