<?xml version="1.0" encoding="utf-8"?>
<!-- Generator: Adobe Illustrator 16.0.0, SVG Export Plug-In . SVG Version: 6.00 Build 0)  -->
<!DOCTYPE svg PUBLIC "-//W3C//DTD SVG 1.1//EN" "http://www.w3.org/Graphics/SVG/1.1/DTD/svg11.dtd">
<svg version="1.1" id="Layer_1" xmlns="http://www.w3.org/2000/svg" xmlns:xlink="http://www.w3.org/1999/xlink" x="0px" y="0px"
	 width="768px" height="1075px" viewBox="0 -24.5 768 1075" enable-background="new 0 -24.5 768 1075" xml:space="preserve">
<path fill="#FFFFFF" d="M640,448c-47.625,0-88.625,26.312-110.625,64.906C523.625,512.5,518,512,512,512
	c-131.063,0-255.438-99.844-300.812-223.438C238.469,265.094,256,230.719,256,192c0-70.656-57.344-128-128-128S0,121.344,0,192
	c0,47.219,25.844,88.062,64,110.281V721.75C25.844,743.938,0,784.75,0,832c0,70.625,57.344,128,128,128s128-57.375,128-128
	c0-47.25-25.844-88.062-64-110.25V491.469C276.156,580.5,392.375,640,512,640c6.375,0,11.625-0.438,17.375-0.625
	C551.5,677.812,592.5,704,640,704c70.625,0,128-57.375,128-128C768,505.344,710.625,448,640,448z M128,896
	c-35.312,0-64-28.625-64-64c0-35.312,28.688-64,64-64c35.406,0,64,28.688,64,64C192,867.375,163.406,896,128,896z M128,256
	c-35.312,0-64-28.594-64-64s28.688-64,64-64c35.406,0,64,28.594,64,64S163.406,256,128,256z M640,640c-35.313,0-64-28.625-64-64
	c0-35.406,28.688-64,64-64c35.375,0,64,28.594,64,64C704,611.375,675.375,640,640,640z"/>
</svg>
