<?xml version="1.0" encoding="utf-8"?>
<!-- Generator: Adobe Illustrator 16.0.0, SVG Export Plug-In . SVG Version: 6.00 Build 0)  -->
<!DOCTYPE svg PUBLIC "-//W3C//DTD SVG 1.1//EN" "http://www.w3.org/Graphics/SVG/1.1/DTD/svg11.dtd">
<svg version="1.1" id="Layer_1" xmlns="http://www.w3.org/2000/svg" xmlns:xlink="http://www.w3.org/1999/xlink" x="0px" y="0px"
	 width="512px" height="512px" viewBox="0 0 512 512" enable-background="new 0 0 512 512" xml:space="preserve">
<path d="M256,0C149.969,0,64,85.969,64,192c0,43.188,14.25,83,38.313,115.094L256,512l153.688-204.906
	C433.75,275,448,235.188,448,192C448,85.969,362.031,0,256,0z M256,320c-70.688,0-128-57.313-128-128c0-70.687,57.313-128,128-128
	c70.688,0,128,57.313,128,128C384,262.688,326.688,320,256,320z"/>
<path fill="none" stroke="#000000" stroke-miterlimit="10" d="M334.5,268.5"/>
<g id="XMLID_1_">
	<g>
		<polygon points="379.636,189.734 379.542,190.413 273.419,190.413 273.419,189.718 271.383,174.964 		"/>
		<polygon points="273.419,189.718 273.419,190.413 256.881,190.413 256.881,173.054 257.386,173.054 271.383,174.964 		"/>
		<polygon points="271.383,174.964 257.386,173.054 256.881,173.054 256.881,70.245 		"/>
		<polygon points="256.881,207.913 256.881,312.601 241.794,205.862 		"/>
		<polygon points="256.881,190.413 256.881,207.913 241.794,205.862 239.743,191.344 239.743,190.413 		"/>
		<polygon points="239.743,191.344 241.794,205.862 133.352,191.139 133.368,190.413 239.743,190.413 		"/>
	</g>
	<g>
		<polyline fill="none" stroke="#000000" stroke-miterlimit="10" points="256.881,67.326 256.881,70.245 256.881,173.054 
			256.881,190.413 256.881,207.913 256.881,312.601 256.881,313.5 		"/>
		<polyline fill="none" stroke="#000000" stroke-miterlimit="10" points="133.368,190.413 239.743,190.413 256.881,190.413 
			273.419,190.413 379.542,190.413 		"/>
		<polyline fill="none" stroke="#000000" stroke-miterlimit="10" points="257.386,173.054 271.383,174.964 379.636,189.734 
			379.81,189.766 		"/>
		<polyline fill="none" stroke="#000000" stroke-miterlimit="10" points="239.743,191.344 241.794,205.862 256.881,312.601 
			257.007,313.5 		"/>
		<polyline fill="none" stroke="#000000" stroke-miterlimit="10" points="257.149,207.945 256.881,207.913 241.794,205.862 
			133.352,191.139 		"/>
		<polyline fill="none" stroke="#000000" stroke-miterlimit="10" points="256.502,67.515 256.881,70.245 271.383,174.964 
			273.419,189.718 		"/>
	</g>
</g>
</svg>
