<?xml version="1.0" ?><!DOCTYPE svg  PUBLIC '-//W3C//DTD SVG 1.1//EN'  'http://www.w3.org/Graphics/SVG/1.1/DTD/svg11.dtd'><svg enable-background="new 0 0 24 24" height="24px" id="Layer_1" version="1.1" viewBox="0 0 24 24" width="24px" xml:space="preserve" xmlns="http://www.w3.org/2000/svg" xmlns:xlink="http://www.w3.org/1999/xlink"><path d="M23.82,12.264L12.575,0.636C12.416,0.473,12.208,0.391,12,0.391s-0.416,0.082-0.575,0.246l-2.312,2.39V1.282h-3.72v5.591  l-5.214,5.391c-0.316,0.328-0.203,0.596,0.251,0.596h3.308v9.096c0,0.91,0.744,1.654,1.654,1.654h5.374v-6.615h2.481v6.615h5.375  c0.909,0,1.654-0.744,1.654-1.654V12.86h3.291C24.024,12.86,24.137,12.592,23.82,12.264z M18.624,11.206v10.75h-3.723V15.34H9.113  v6.616h-3.72v-10.75H3.505l3.542-3.664V2.471h0.412v4.645L12,2.42l8.495,8.786H18.624z"/></svg>