<?xml version="1.0" encoding="utf-8"?>
<!-- Generator: Adobe Illustrator 16.0.0, SVG Export Plug-In . SVG Version: 6.00 Build 0)  -->
<!DOCTYPE svg PUBLIC "-//W3C//DTD SVG 1.1//EN" "http://www.w3.org/Graphics/SVG/1.1/DTD/svg11.dtd">
<svg version="1.1" id="Lager_1" xmlns="http://www.w3.org/2000/svg" xmlns:xlink="http://www.w3.org/1999/xlink" x="0px" y="0px"
	 width="612px" height="792px" viewBox="0 0 612 792" enable-background="new 0 0 612 792" xml:space="preserve">
<g>
	<path fill="#FFFFFF" d="M432.225,361.097h-20.081l-10.519,55.463h17.69c11.476,0,20.081-2.391,25.819-6.694
		c5.737-4.303,9.563-11.953,11.475-21.993c1.912-9.563,1.435-16.734-2.391-20.56C450.394,363.009,443.222,361.097,432.225,361.097z"
		/>
	<path fill="#FFFFFF" d="M199.378,361.097h-20.081l-10.519,55.463h17.69c11.475,0,20.081-2.391,25.819-6.694
		c5.737-4.303,9.563-11.953,11.475-21.993c1.912-9.563,1.434-16.734-2.391-20.56C217.547,363.009,210.375,361.097,199.378,361.097z"
		/>
	<path fill="#FFFFFF" d="M306,156.938c-131.962,0-239.063,107.1-239.063,239.063c0,131.963,107.1,239.063,239.063,239.063
		c131.963,0,239.063-107.1,239.063-239.063C545.063,264.038,437.963,156.938,306,156.938z M253.406,389.784
		c-0.956,6.216-3.347,12.432-6.216,17.69c-3.347,5.26-7.172,10.52-11.953,14.822c-5.737,5.26-11.953,9.084-19.125,11.475
		s-15.778,3.348-26.775,3.348h-24.862l-6.694,35.381h-28.688l25.819-132.44h55.462c16.734,0,28.688,4.303,36.337,12.909
		C254.362,362.053,256.275,374.006,253.406,389.784z M327.037,438.075l11.476-58.332c1.435-6.694,0.956-10.997-1.435-13.387
		s-7.172-3.825-14.344-3.825h-22.95l-14.822,75.544h-28.688l26.297-132.919h28.688l-6.694,35.381h25.341
		c15.778,0,27.253,2.869,32.99,8.606c6.216,5.738,8.129,14.822,5.26,27.253l-11.953,61.678H327.037z M480.037,407.475
		c-3.347,5.26-7.172,10.52-11.953,14.822c-5.737,5.26-11.953,9.084-19.125,11.475s-15.777,3.348-26.774,3.348h-24.862l-6.694,35.381
		H361.94l25.819-132.44h55.462c16.734,0,28.688,4.303,36.338,12.909c7.649,9.084,9.563,21.038,6.693,36.815
		C485.297,396,482.906,402.216,480.037,407.475z"/>
</g>
</svg>
