<?xml version="1.0" encoding="utf-8"?>
<!-- Generator: Adobe Illustrator 16.0.0, SVG Export Plug-In . SVG Version: 6.00 Build 0)  -->
<!DOCTYPE svg PUBLIC "-//W3C//DTD SVG 1.1//EN" "http://www.w3.org/Graphics/SVG/1.1/DTD/svg11.dtd">
<svg version="1.1" id="Lager_1" xmlns="http://www.w3.org/2000/svg" xmlns:xlink="http://www.w3.org/1999/xlink" x="0px" y="0px"
	 width="75px" height="58.594px" viewBox="0 145.703 75 58.594" enable-background="new 0 145.703 75 58.594" xml:space="preserve">
<g>
	<path fill="#FFFFFF" d="M30.586,166.445c-1.172,0-1.992,0.117-2.402,0.176v7.793c0.527,0.117,1.172,0.176,2.051,0.176
		c3.105,0,5.039-1.523,5.039-4.219C35.273,167.793,33.516,166.445,30.586,166.445z"/>
	<path fill="#FFFFFF" d="M37.5,145.703c-16.172,0-29.297,13.125-29.297,29.297s13.125,29.297,29.297,29.297
		S66.797,191.172,66.797,175S53.672,145.703,37.5,145.703z M37.441,175.469c-1.641,1.641-4.277,2.461-7.266,2.461
		c-0.762,0-1.523-0.059-2.051-0.117v8.613h-4.102V163.75c1.523-0.293,3.574-0.469,6.387-0.469c3.047,0,5.332,0.645,6.797,1.875
		c1.348,1.113,2.227,2.93,2.227,5.098S38.73,174.238,37.441,175.469z M45.527,186.836c-1.992,0-3.809-0.469-5.039-1.172l0.82-3.105
		c0.938,0.586,2.754,1.172,4.277,1.172c1.816,0,2.637-0.762,2.637-1.816c0-1.113-0.703-1.699-2.695-2.402
		c-3.223-1.113-4.57-2.871-4.57-4.805c0-2.93,2.402-5.215,6.27-5.215c1.816,0,3.457,0.469,4.395,0.996l-0.82,2.988
		c-0.703-0.41-2.051-0.938-3.516-0.938c-1.523,0-2.285,0.703-2.285,1.758s0.762,1.582,2.871,2.285
		c2.988,1.113,4.395,2.637,4.395,5.098C52.266,184.668,49.922,186.836,45.527,186.836z"/>
</g>
</svg>
