<?xml version="1.0" encoding="utf-8"?>
<!-- Generator: Adobe Illustrator 16.0.0, SVG Export Plug-In . SVG Version: 6.00 Build 0)  -->
<!DOCTYPE svg PUBLIC "-//W3C//DTD SVG 1.1//EN" "http://www.w3.org/Graphics/SVG/1.1/DTD/svg11.dtd">
<svg version="1.1" id="Layer_1" xmlns="http://www.w3.org/2000/svg" xmlns:xlink="http://www.w3.org/1999/xlink" x="0px" y="0px"
	 width="75px" height="350px" viewBox="0 0 75 350" enable-background="new 0 0 75 350" xml:space="preserve">
<path fill="#020202" d="M72.896,71H3.69c-0.093,0.216-0.202,0.423-0.324,0.623c-0.041,0.281-0.096,0.56-0.178,0.831L20.5,206L38,341
	l17.499-135L72.963,71.286C72.938,71.191,72.916,71.096,72.896,71z"/>
<path fill="#020202" d="M73.047,71.032c-0.002-0.024-0.008-0.048-0.009-0.072L55.945,42L38.258,12.033L20.675,42.06L3.506,71.382
	c-0.053,0.1-0.111,0.196-0.17,0.291L3.162,71.97c-0.001,0.039-0.003,0.078-0.005,0.118l35.206-0.06l34.603-0.059
	C72.967,71.654,72.994,71.341,73.047,71.032z"/>
</svg>
